<?xml version="1.0" encoding="utf-8"?>
<!-- Generator: Adobe Illustrator 25.2.1, SVG Export Plug-In . SVG Version: 6.00 Build 0)  -->
<svg version="1.1" id="Ebene_1" xmlns="http://www.w3.org/2000/svg" xmlns:xlink="http://www.w3.org/1999/xlink" x="0px" y="0px"
	 viewBox="0 0 566.93 566.93" style="enable-background:new 0 0 566.93 566.93;" xml:space="preserve">
<style type="text/css">
	.st0{font-family:'Calibri-Light';}
	.st1{font-size:60px;}
	.st2{fill:none;stroke:#000000;stroke-width:4;stroke-miterlimit:10;}
</style>
<text transform="matrix(1 0 0 1 58.4723 521.7788)" class="st0 st1">Desinfektionsmittel</text>
<g>
	<path class="st2" d="M354.45,400.38H225.51c-6.6,0-12-5.4-12-12v-201.2c0-6.6,5.4-12,12-12h128.93c6.6,0,12,5.4,12,12v201.2
		C366.45,394.98,361.05,400.38,354.45,400.38z"/>
	<path class="st2" d="M317.4,175.18h-52.47c-6.6,0-12-5.4-12-12v-20.93c0-6.6,5.4-12,12-12h52.47c6.6,0,12,5.4,12,12v20.93
		C329.4,169.78,324,175.18,317.4,175.18z"/>
	<path class="st2" d="M306.18,130.28h-28.67c-6.58,0-11.97-5.39-11.97-11.97v0c0-6.58,5.39-11.97,11.97-11.97h28.67
		c6.58,0,11.97,5.39,11.97,11.97v0C318.15,124.89,312.77,130.28,306.18,130.28z"/>
	<path class="st2" d="M347.53,81.11"/>
	<rect x="278.42" y="72.18" class="st2" width="24.18" height="34.16"/>
	<path class="st2" d="M327.82,72.18c-39.07,0-78.15,0-117.22,0c-4.11,0-8.22,0-12.33,0c0-8.76,0-17.52,0-26.28h129.55V72.18z"/>
	<ellipse class="st2" cx="209.44" cy="102.66" rx="11.17" ry="18.39"/>
</g>
</svg>
