<?xml version="1.0" encoding="utf-8"?>
<!-- Generator: Adobe Illustrator 25.2.1, SVG Export Plug-In . SVG Version: 6.00 Build 0)  -->
<svg version="1.1" id="Ebene_1" xmlns="http://www.w3.org/2000/svg" xmlns:xlink="http://www.w3.org/1999/xlink" x="0px" y="0px"
	 viewBox="0 0 566.93 566.93" style="enable-background:new 0 0 566.93 566.93;" xml:space="preserve">
<style type="text/css">
	.st0{fill:#FFFFFF;stroke:#000000;stroke-width:4;stroke-miterlimit:10;}
	.st1{fill:#FFFFFF;stroke:#000000;stroke-miterlimit:10;}
	.st2{font-family:'Calibri-Light';}
	.st3{font-size:60px;}
	.st4{fill:none;stroke:#000000;stroke-width:2;stroke-miterlimit:10;}
	.st5{fill:none;stroke:#000000;stroke-width:4;stroke-miterlimit:10;}
</style>
<path class="st0" d="M252.95,136.65"/>
<path class="st1" d="M248,103.84"/>
<path class="st0" d="M279.89,121.48"/>
<text transform="matrix(1 0 0 1 226.4333 510.9817)" class="st2 st3">FFP 1</text>
<path class="st4" d="M285.15,371.33"/>
<path class="st5" d="M285.15,122.72"/>
<g>
	<g>
		<path class="st0" d="M473.88,142.12c-7.65-13.02-13.32-7.5-127.87-62.92c-23.93-11.58-42.85-21.11-69.29-20.26
			c-27.36,0.88-45.17,12.3-68.08,24.72c-89.23,48.38-115.12,35.26-128.03,58.46c-33.56,60.32,62.25,243.13,196.63,243.13
			c95.32,0,157.29-93.87,165.97-107.1C478.38,224.55,485.64,162.15,473.88,142.12z"/>
		<path class="st5" d="M81.35,219.97C49.31,165.29,45.22,118.6,62.78,105.79c17.05-12.45,52.73,8.36,60.53,13.07"/>
		<path class="st5" d="M472.25,219.97c32.04-54.68,36.13-101.37,18.57-114.18c-17.05-12.45-52.73,8.36-60.53,13.07"/>
	</g>
	<g>
		<line class="st5" x1="276.71" y1="58.94" x2="276.71" y2="384.32"/>
	</g>
</g>
</svg>
