<?xml version="1.0" encoding="utf-8"?>
<!-- Generator: Adobe Illustrator 25.2.1, SVG Export Plug-In . SVG Version: 6.00 Build 0)  -->
<svg version="1.1" id="Ebene_1" xmlns="http://www.w3.org/2000/svg" xmlns:xlink="http://www.w3.org/1999/xlink" x="0px" y="0px"
	 viewBox="0 0 566.93 566.93" style="enable-background:new 0 0 566.93 566.93;" xml:space="preserve">
<style type="text/css">
	.st0{fill:#FFFFFF;stroke:#000000;stroke-width:4;stroke-miterlimit:10;}
	.st1{font-family:'Calibri-Light';}
	.st2{font-size:60px;}
	.st3{fill:none;stroke:#000000;stroke-width:2;stroke-miterlimit:10;}
	.st4{fill:none;stroke:#000000;stroke-width:4;stroke-miterlimit:10;}
</style>
<path class="st0" d="M250.42,233.57"/>
<path class="st0" d="M245.47,200.75"/>
<path class="st0" d="M277.35,218.4"/>
<text transform="matrix(1 0 0 1 217.1501 525.2119)" class="st1 st2">FFP 2</text>
<path class="st3" d="M282.62,468.25"/>
<path class="st4" d="M282.62,219.64"/>
<g>
	<path class="st0" d="M481.05,142.27c-7.65-13.02-13.32-7.5-127.87-62.92c-23.93-11.58-42.85-21.11-69.29-20.26
		c-27.36,0.88-45.17,12.3-68.08,24.72c-89.23,48.38-115.12,35.26-128.03,58.46C54.22,202.59,150.03,385.4,284.42,385.4
		c95.32,0,157.29-93.87,165.97-107.1C485.55,224.7,492.81,162.3,481.05,142.27z"/>
	<path class="st4" d="M88.52,220.12c-32.04-54.68-36.13-101.37-18.57-114.18c17.05-12.45,52.73,8.36,60.53,13.07"/>
	<path class="st4" d="M479.42,220.12c32.04-54.68,36.13-101.37,18.57-114.18c-17.05-12.45-52.73,8.36-60.53,13.07"/>
</g>
<ellipse class="st4" cx="283.65" cy="222.22" rx="33.99" ry="32.85"/>
</svg>
