<?xml version="1.0" encoding="utf-8"?>
<!-- Generator: Adobe Illustrator 25.2.1, SVG Export Plug-In . SVG Version: 6.00 Build 0)  -->
<svg version="1.1" id="Ebene_1" xmlns="http://www.w3.org/2000/svg" xmlns:xlink="http://www.w3.org/1999/xlink" x="0px" y="0px"
	 viewBox="0 0 566.93 566.93" style="enable-background:new 0 0 566.93 566.93;" xml:space="preserve">
<style type="text/css">
	.st0{font-family:'Calibri-Light';}
	.st1{font-size:60px;}
	.st2{fill:none;stroke:#000000;stroke-width:2;stroke-miterlimit:10;}
	.st3{fill:none;stroke:#000000;stroke-width:4;stroke-miterlimit:10;}
</style>
<text transform="matrix(1 0 0 1 133.5255 525.2119)" class="st0 st1">Handschuhe</text>
<path class="st2" d="M282.99,467.25"/>
<path class="st2" d="M43.53,229.05"/>
<path class="st2" d="M328.62,311.95"/>
<path class="st2" d="M698.89,403.01"/>
<path class="st3" d="M203.52,398.28h115.36c1.28,0,2.23-1.21,1.9-2.45c-19.71-74.51,121.64-124.9,121.64-174.01
	c0-0.44-0.2-0.83-0.26-1.27c-1.98-14.07-25.87-19.74-38.18-7.47c-0.03,0.03-0.07,0.07-0.1,0.11
	c-117.2,131.06-31.16-100.46-57.44-126.66c-0.1-0.09-0.2-0.18-0.3-0.27c-19.05-15.44-39.16,53.08-45.34,105.82
	c-0.29,2.44-3.89,2.25-3.91-0.21c-0.24-29.19-0.35-83.98-0.43-108.54c-0.03-8.91-6.22-20.09-13.97-24.5
	c-36.32-20.65-25.14,92.37-23.06,135.91c0.12,2.53-3.63,2.83-3.91,0.31c-4.74-42.5-4.69-145.36-38.57-117.76
	c-6.38,5.2-9.79,13.22-9.29,21.44c1.63,26.85,7.67,93.88,9.94,119.09c0.19,2.13-2.68,2.98-3.68,1.08
	c-6.06-11.53-16.2-33.35-17.26-51.96c-1.53-26.72-32.6-22.32-32.45-9.16c-2.07,80.4,47.54,169.39,37.39,238.24
	C201.41,397.21,202.32,398.28,203.52,398.28z"/>
</svg>
